{"title":"Game 2011 Cam Rip Xvid D3MT","uid":6287489,"size":658227200,"categoryP":"video","categoryS":"movies","magnet":"?xt=urn:btih:36be6517a47b345d7ba9640ea8673c341ec4b71e&amp;dn=Game+2011+Cam+Rip+Xvid+D3MT&amp;tr=udp%3A%2F%2Ftracker.openbittorrent.com%3A80&amp;tr=udp%3A%2F%2Fopen.demonii.com%3A1337&amp;tr=udp%3A%2F%2Ftracker.coppersurfer.tk%3A6969&amp;tr=udp%3A%2F%2Fexodus.desync.com%3A6969","seeders":0,"leechers":0,"uploader":"arihantkatariya","files":1,"time":1301667527,"description":"\n\nInfo:\n\n[CODE]Format                           : MPEG-PS\nFile size                        : 628 MiB\nDuration                         : 2h 7mn\nOverall bit rate                 : 688 Kbps\n\nVideo\nID                               : 224 (0xE0)\nFormat                           : MPEG Video\nFormat version                   : Version 1\nFormat settings, BVOP            : Yes\nFormat settings, Matrix          : Default\nDuration                         : 2h 7mn\nBit rate mode                    : Variable\nBit rate                         : 483 Kbps\nWidth                            : 352 pixels\nHeight                           : 288 pixels\nDisplay aspect ratio             : 4:3\nFrame rate                       : 25.000 fps\nStandard                         : PAL\nColor space                      : YUV\nBit depth                        : 8 bits\nScan type                        : Progressive\nCompression mode                 : Lossy\nBits/(Pixel*Frame)               : 0.190\nStream size                      : 440 MiB (70%)\n\nAudio\nID                               : 192 (0xC0)\nFormat                           : MPEG Audio\nFormat version                   : Version 1\nFormat profile                   : Layer 2\nDuration                         : 2h 7mn\nBit rate mode                    : Constant\nBit rate                         : 192 Kbps\nChannel(s)                       : 2 channels\nSampling rate                    : 44.1 KHz\nCompression mode                 : Lossy\nStream size                      : 175 MiB (28%)[/CODE]Screens:\n\n\n\n\n\n\n\n\n\n[/CENTER]","torrent":{"xt":"urn:btih:36be6517a47b345d7ba9640ea8673c341ec4b71e","amp;dn":"Game+2011+Cam+Rip+Xvid+D3MT","amp;tr":["udp%3A%2F%2Ftracker.openbittorrent.com%3A80","udp%3A%2F%2Fopen.demonii.com%3A1337","udp%3A%2F%2Ftracker.coppersurfer.tk%3A6969","udp%3A%2F%2Fexodus.desync.com%3A6969"],"infoHash":"36be6517a47b345d7ba9640ea8673c341ec4b71e","infoHashBuffer":{"type":"Buffer","data":[54,190,101,23,164,123,52,93,123,169,100,14,168,103,60,52,30,196,183,30]},"announce":[],"urlList":[]}}